<?xml version="1.0" encoding="UTF-8"?>
<svg width="160px" height="160px" viewBox="0 0 160 160" version="1.1" xmlns="http://www.w3.org/2000/svg" xmlns:xlink="http://www.w3.org/1999/xlink">
    <title>chat ing</title>
    <defs>
        <path d="M64,140.405791 C28.653776,140.405791 0,111.752015 0,76.405791 C0,54.6416459 8.04128252,23.9683208 24.6418519,12.405791 C31.5483256,7.59533508 44.6677083,3.47583401 64,0.0472878279 C82.7082067,-0.515355723 95.9751791,3.94286623 103.800917,13.4219537 C112.935362,24.4862386 128,60.9376112 128,76.405791 C128,111.752015 99.346224,140.405791 64,140.405791 Z" id="path-1"></path>
        <path d="M5.05512328e-15,75.0011383 C5.05512328e-15,116.422056 33.5779441,150 75,150 L75,150 C116.423194,150 150,116.422056 150,75.0011383 L150,75.0011383 C150,33.5790824 116.423194,0 75,0 L75,0 C33.5779441,0 5.05512328e-15,33.5790824 5.05512328e-15,75.0011383 L5.05512328e-15,75.0011383 Z" id="path-3"></path>
        <path d="M5.05512328e-15,75.0011383 C5.05512328e-15,116.422056 33.5779441,150 75,150 L75,150 C116.423194,150 150,116.422056 150,75.0011383 L150,75.0011383 C150,33.5790824 116.423194,0 75,0 L75,0 C33.5779441,0 5.05512328e-15,33.5790824 5.05512328e-15,75.0011383 L5.05512328e-15,75.0011383 Z" id="path-5"></path>
        <path d="M5.05512328e-15,75.0011383 C5.05512328e-15,116.422056 33.5779441,150 75,150 L75,150 C116.423194,150 150,116.422056 150,75.0011383 L150,75.0011383 C150,33.5790824 116.423194,0 75,0 L75,0 C33.5779441,0 5.05512328e-15,33.5790824 5.05512328e-15,75.0011383 L5.05512328e-15,75.0011383 Z" id="path-7"></path>
        <path d="M5.05512328e-15,75.0011383 C5.05512328e-15,116.422056 33.5779441,150 75,150 L75,150 C116.423194,150 150,116.422056 150,75.0011383 L150,75.0011383 C150,33.5790824 116.423194,0 75,0 L75,0 C33.5779441,0 5.05512328e-15,33.5790824 5.05512328e-15,75.0011383 L5.05512328e-15,75.0011383 Z" id="path-9"></path>
        <path d="M5.05512328e-15,75.0011383 C5.05512328e-15,116.422056 33.5779441,150 75,150 L75,150 C116.423194,150 150,116.422056 150,75.0011383 L150,75.0011383 C150,33.5790824 116.423194,0 75,0 L75,0 C33.5779441,0 5.05512328e-15,33.5790824 5.05512328e-15,75.0011383 L5.05512328e-15,75.0011383 Z" id="path-11"></path>
        <path d="M5.05512328e-15,75.0011383 C5.05512328e-15,116.422056 33.5779441,150 75,150 L75,150 C116.423194,150 150,116.422056 150,75.0011383 L150,75.0011383 C150,33.5790824 116.423194,0 75,0 L75,0 C33.5779441,0 5.05512328e-15,33.5790824 5.05512328e-15,75.0011383 L5.05512328e-15,75.0011383 Z" id="path-13"></path>
        <path d="M5.05512328e-15,75.0011383 C5.05512328e-15,116.422056 33.5779441,150 75,150 L75,150 C116.423194,150 150,116.422056 150,75.0011383 L150,75.0011383 C150,33.5790824 116.423194,0 75,0 L75,0 C33.5779441,0 5.05512328e-15,33.5790824 5.05512328e-15,75.0011383 L5.05512328e-15,75.0011383 Z" id="path-15"></path>
        <path d="M5.05512328e-15,75.0011383 C5.05512328e-15,116.422056 33.5779441,150 75,150 L75,150 C116.423194,150 150,116.422056 150,75.0011383 L150,75.0011383 C150,33.5790824 116.423194,0 75,0 L75,0 C33.5779441,0 5.05512328e-15,33.5790824 5.05512328e-15,75.0011383 L5.05512328e-15,75.0011383 Z" id="path-17"></path>
        <path d="M5.05512328e-15,75.0011383 C5.05512328e-15,116.422056 33.5779441,150 75,150 L75,150 C116.423194,150 150,116.422056 150,75.0011383 L150,75.0011383 C150,33.5790824 116.423194,0 75,0 L75,0 C33.5779441,0 5.05512328e-15,33.5790824 5.05512328e-15,75.0011383 L5.05512328e-15,75.0011383 Z" id="path-19"></path>
        <path d="M5.05512328e-15,75.0011383 C5.05512328e-15,116.422056 33.5779441,150 75,150 L75,150 C116.423194,150 150,116.422056 150,75.0011383 L150,75.0011383 C150,33.5790824 116.423194,0 75,0 L75,0 C33.5779441,0 5.05512328e-15,33.5790824 5.05512328e-15,75.0011383" id="path-21"></path>
        <path d="M5.05512328e-15,75.0011383 C5.05512328e-15,116.422056 33.5779441,150 75,150 L75,150 C116.423194,150 150,116.422056 150,75.0011383 L150,75.0011383 C150,33.5790824 116.423194,0 75,0 L75,0 C33.5779441,0 5.05512328e-15,33.5790824 5.05512328e-15,75.0011383" id="path-23"></path>
        <path d="M5.05512328e-15,75.0011383 C5.05512328e-15,116.422056 33.5779441,150 75,150 L75,150 C116.423194,150 150,116.422056 150,75.0011383 L150,75.0011383 C150,33.5790824 116.423194,0 75,0 L75,0 C33.5779441,0 5.05512328e-15,33.5790824 5.05512328e-15,75.0011383" id="path-25"></path>
    </defs>
    <g id="chat-ing" stroke="none" stroke-width="1" fill="none" fill-rule="evenodd">
        <g id="ING_0261-11" transform="translate(16.000000, 3.594209)">
            <path d="M128,76.405791 C128,111.752015 99.346224,140.405791 64,140.405791 C28.653776,140.405791 0,111.752015 0,76.405791 C0,41.059567 28.653776,12.405791 64,12.405791 C99.346224,12.405791 128,41.059567 128,76.405791" id="Oval" fill="#FBEECF" fill-rule="nonzero"></path>
            <mask id="mask-2" fill="white">
                <use xlink:href="#path-1"></use>
            </mask>
            <g id="Oval-Copy-3" fill-rule="nonzero"></g>
            <g id="Group-53" mask="url(#mask-2)">
                <g transform="translate(-11.000000, -6.594109)" id="Group-52">
                    <g id="Group-6">
                        <mask id="mask-4" fill="white">
                            <use xlink:href="#path-3"></use>
                        </mask>
                        <g id="Clip-5"></g>
                        <polygon id="Fill-4" fill="#F3702A" mask="url(#mask-4)" points="63.252159 122.458527 12.5300894 180.675247 0.35242157 148.645408 42.2150045 104.895503"></polygon>
                    </g>
                    <g id="Group-9">
                        <mask id="mask-6" fill="white">
                            <use xlink:href="#path-5"></use>
                        </mask>
                        <g id="Clip-8"></g>
                        <polygon id="Fill-7" fill="#234D73" mask="url(#mask-6)" points="29.2591862 116.697528 57.9275881 135.856466 23.566485 185.203454 -7.27267898 156.079727"></polygon>
                    </g>
                    <g id="Group-12">
                        <mask id="mask-8" fill="white">
                            <use xlink:href="#path-7"></use>
                        </mask>
                        <g id="Clip-11"></g>
                        <path d="M50.4691366,128.065741 C46.3564133,126.466412 70.1972316,127.997443 77.7066796,121.124311 C98.5116184,102.074651 106.285155,92.4843672 106.285155,92.4843672 L99.4131619,83.0864586 L52.0206566,81.4939594 L49.1156829,117.202825 L50.4691366,128.065741 Z" id="Fill-10" fill="#F3702A" mask="url(#mask-8)"></path>
                    </g>
                    <g id="Group-15">
                        <mask id="mask-10" fill="white">
                            <use xlink:href="#path-9"></use>
                        </mask>
                        <g id="Clip-14"></g>
                        <path d="M105.51668,64.6932627 C105.51668,64.6932627 111.827485,57.6721508 115.367637,53.8736018 C118.911204,50.0784677 120.67445,46.1581192 118.620934,43.5354471 C116.570833,40.9104983 113.381282,40.7761774 107.942424,48.2537526 C102.509258,55.7313279 96.9622611,63.579993 96.9622611,63.579993 L105.51668,64.6932627 Z" id="Fill-13" fill="#F3702A" mask="url(#mask-10)"></path>
                    </g>
                    <g id="Group-18">
                        <mask id="mask-12" fill="white">
                            <use xlink:href="#path-11"></use>
                        </mask>
                        <g id="Clip-17"></g>
                        <path d="M111.827826,23.3052423 C114.284305,23.7787803 115.163082,25.4122589 114.689544,27.8698757 L99.0388848,109.839764 C98.5676234,112.296242 96.1965183,113.906954 93.7389015,113.436831 L50.1506367,105.722487 C47.6952965,105.252364 46.080031,102.880121 46.5524307,100.421365 L62.2042285,18.4503392 C62.6720749,15.994999 65.0465949,14.385425 67.5030734,14.8555481 L111.827826,23.3052423 Z" id="Fill-16" fill="#788695" mask="url(#mask-12)"></path>
                    </g>
                    <g id="Group-21">
                        <mask id="mask-14" fill="white">
                            <use xlink:href="#path-13"></use>
                        </mask>
                        <g id="Clip-20"></g>
                        <path d="M111.827826,19.89611 C114.284305,20.3685097 115.900709,22.7407531 115.427171,25.1972316 L99.775373,107.167119 C99.3041116,109.624736 96.9341448,111.235449 94.4742514,110.764187 L50.1506367,102.312216 C47.6952965,101.842093 46.080031,99.4709882 46.5524307,97.0110948 L62.2042285,15.0412069 C62.6720749,12.5847284 65.0465949,10.9751544 67.5030734,11.4452775 L111.827826,19.89611 Z" id="Fill-19" fill="#1B0A08" mask="url(#mask-14)"></path>
                    </g>
                    <g id="Group-24">
                        <mask id="mask-16" fill="white">
                            <use xlink:href="#path-15"></use>
                        </mask>
                        <g id="Clip-23"></g>
                        <path d="M77.2503301,99.5889174 C77.6487395,101.349887 76.5457146,103.099473 74.7858834,103.499021 C73.0260522,103.898569 71.2764658,102.794406 70.8769181,101.034574 C70.4773703,99.2758814 71.5803952,97.5240184 73.3402264,97.125609 C75.101196,96.7271996 76.8507824,97.8302245 77.2503301,99.5889174 Z" id="Stroke-22" stroke="#FFFFFF" stroke-width="0.827" mask="url(#mask-16)"></path>
                    </g>
                    <g id="Group-27">
                        <mask id="mask-18" fill="white">
                            <use xlink:href="#path-17"></use>
                        </mask>
                        <g id="Clip-26"></g>
                        <polygon id="Fill-25" fill="#FFFFFF" mask="url(#mask-18)" points="66.7810418 16.9559625 63.9147707 31.8405376 63.1805591 35.7677159 52.626125 90.4886776 96.3088697 98.283842 106.861027 43.5628804 107.596377 39.6379787 110.46151 24.7534036"></polygon>
                    </g>
                    <g id="Group-30">
                        <mask id="mask-20" fill="white">
                            <use xlink:href="#path-19"></use>
                        </mask>
                        <g id="Clip-29"></g>
                        <path d="M56.7569475,117.036859 C56.7569475,117.036859 61.2566971,111.492138 53.0824745,76.9659796 C50.8673183,67.6136036 57.3693597,57.6852414 55.3818659,46.4637561 C53.6254496,36.5524686 46.6567001,37.4949914 45.6902727,40.4671255 C44.7272603,43.4347064 44.2594138,56.1564876 43.1586656,60.8713783 C42.0579173,65.5885455 38.1466754,79.8220059 36.6293047,84.6541427 C35.1119341,89.4885562 32.4118567,116.959453 48.4905217,124.575903 L56.7569475,117.036859 Z" id="Fill-28" fill="#F3702A" mask="url(#mask-20)"></path>
                    </g>
                    <g id="Group-33">
                        <mask id="mask-22" fill="white">
                            <use xlink:href="#path-21"></use>
                        </mask>
                        <g id="Clip-32"></g>
                        <path d="M103.272155,95.8492191 C103.272155,95.8492191 106.517484,93.317612 107.734341,89.0182054 C108.95575,84.7153839 106.723519,80.9384628 104.352414,78.9088515 C101.980171,76.8758253 98.5094556,79.5633812 100.371735,84.2555056 C102.230599,88.94763 103.650075,90.7962496 103.272155,95.8492191" id="Fill-31" fill="#F3702A" mask="url(#mask-22)"></path>
                    </g>
                    <g id="Group-36">
                        <mask id="mask-24" fill="white">
                            <use xlink:href="#path-23"></use>
                        </mask>
                        <g id="Clip-35"></g>
                        <path d="M106.392156,82.6510541 C106.883907,82.1536115 110.091672,79.8121025 110.856618,75.8189021 C111.623841,71.8257016 109.753593,66.1466602 107.645438,63.7732785 C105.53956,61.3976202 101.733043,64.8080046 102.034696,69.3988192 C102.336349,73.9896338 103.553205,78.9549532 103.834368,80.5827401 C104.113255,82.2139421 106.392156,82.6510541 106.392156,82.6510541" id="Fill-34" fill="#F3702A" mask="url(#mask-24)"></path>
                    </g>
                    <g id="Group-39">
                        <mask id="mask-26" fill="white">
                            <use xlink:href="#path-25"></use>
                        </mask>
                        <g id="Clip-38"></g>
                        <path d="M95.6307769,46.3775859 L71.9538756,41.7753882 C70.906628,41.5716302 69.8912532,42.2557561 69.6874953,43.3041419 L65.9287872,62.6429341 C65.7250292,63.69132 66.4091551,64.7055565 67.4575409,64.9093144 L70.6072518,65.5217266 C70.8690637,65.5729507 71.0386723,65.825656 70.9885865,66.0863296 L69.5474828,73.5012977 L78.3033831,67.5945938 C78.7279737,67.307739 79.2493208,67.2018759 79.752455,67.2997708 L94.133304,69.5115121 C95.1816899,69.7152701 96.1959264,69.0311442 96.4008226,67.9827584 C98.6528408,56.7988021 99.8197864,50.6886697 99.9016593,49.6523611 C100.024469,48.0978984 98.9731976,47.287889 98.0647142,46.9220167" id="Fill-37" fill="#F36D2A" mask="url(#mask-26)"></path>
                    </g>
                    <g id="Group" transform="translate(82.984773, 56.331913) rotate(9.000000) translate(-82.984773, -56.331913) translate(71.109773, 53.331913)" fill="#FFFFFF">
                        <path d="M6,2.99872068 C6,4.65799574 4.65486348,6 2.99872014,6 C1.34385666,6 0,4.65799574 0,2.99872068 C0,1.3445629 1.34385666,0 2.99872014,0 C4.65486348,0 6,1.3445629 6,2.99872068" id="Fill-12"></path>
                        <path d="M14.5,2.99872068 C14.5,4.65799574 13.1574232,6 11.4987201,6 C9.84001706,6 8.5,4.65799574 8.5,2.99872068 C8.5,1.3445629 9.84001706,0 11.4987201,0 C13.1574232,0 14.5,1.3445629 14.5,2.99872068" id="Fill-14"></path>
                        <path d="M23.75,2.99872068 C23.75,4.65799574 22.4077095,6 20.7506398,6 C19.0948496,6 17.75,4.65799574 17.75,2.99872068 C17.75,1.3445629 19.0948496,0 20.7506398,0 C22.4077095,0 23.75,1.3445629 23.75,2.99872068" id="Fill-16"></path>
                    </g>
                </g>
            </g>
        </g>
    </g>
</svg>