<?xml version="1.0" encoding="utf-8"?>
<!-- Generator: Adobe Illustrator 22.0.1, SVG Export Plug-In . SVG Version: 6.00 Build 0)  -->
<svg version="1.1" id="Laag_1" xmlns="http://www.w3.org/2000/svg" xmlns:xlink="http://www.w3.org/1999/xlink" x="0px" y="0px"
	 viewBox="0 0 150.4 150.3" style="enable-background:new 0 0 150.4 150.3;" xml:space="preserve">
<style type="text/css">
	.st0{clip-path:url(#SVGID_2_);}
	.st1{fill:#EEDBB9;}
	.st2{fill:#EC671C;}
	.st3{fill:#AD471F;}
	.st4{fill:#241611;}
	.st5{fill:#FFFFFF;}
	.st6{fill:#F2E9E4;}
	.st7{fill:none;stroke:#FFFFFF;stroke-width:0.2024;stroke-miterlimit:10;}
	.st8{fill:#5E5452;}
	.st9{fill:none;stroke:#FFFFFF;stroke-width:0.5276;stroke-miterlimit:10;}
	.st10{fill:none;stroke:#FFFFFF;stroke-width:0.224;stroke-miterlimit:10;}
	.st11{fill:#264870;}
	.st12{fill:none;stroke:#EC671C;stroke-width:1.3371;stroke-miterlimit:10;}
</style>
<g>
	<g>
		<defs>
			<path id="SVGID_1_" d="M75.6,4.1C36,4.1,4,36.1,4,75.6c0,39.5,32,71.6,71.6,71.6c39.5,0,71.6-32,71.6-71.6
				C147.1,36.1,115.1,4.1,75.6,4.1L75.6,4.1z"/>
		</defs>
		<clipPath id="SVGID_2_">
			<use xlink:href="#SVGID_1_"  style="overflow:visible;"/>
		</clipPath>
		<g class="st0">
			<path class="st1" d="M147.1,75.6c0,39.5-32,71.6-71.6,71.6C36,147.2,4,115.2,4,75.6S36,4.1,75.6,4.1
				C115.1,4.1,147.1,36.1,147.1,75.6"/>
			<path class="st2" d="M94.6,115.4l0,51.1l-25.8,2l1-55.9L94.6,115.4L94.6,115.4z"/>
			<path class="st2" d="M55.6,83.9l-6.8,6.3c0,0,4.4,8.3,17.2,25.5c4.3-9.6,9.4-18.9,15.2-27.8L55.6,83.9L55.6,83.9z"/>
			<path class="st2" d="M82.6,121.8l-0.3,0.2C82.9,121.9,83,121.8,82.6,121.8"/>
			<path class="st2" d="M66,115.7c3.7,1.4,0.5,0.7,0.8,1.1c1.6,2.1,4.1,3.3,6.7,4c-0.3-5.4-1.1-10.8-2.2-16.1
				C69.4,108.4,67.7,112,66,115.7"/>
			<path class="st3" d="M81.2,87.9c-3.6,5.5-6.9,11.1-9.9,16.8c1.1,5.3,1.9,10.7,2.2,16.1c4,1.1,8.1,1,9.1,1l7.1-3.8l3.1-28.3
				L81.2,87.9L81.2,87.9z"/>
			<path class="st2" d="M53.6,68.7c0,0-3.9-6.4-6.1-9.9c-2.2-3.5-3-6.8-1-8.5c2-1.7,4.5-1.4,7.6,5.3c3.1,6.6,6.3,13.6,6.3,13.6
				L53.6,68.7L53.6,68.7z"/>
			<path class="st4" d="M55.4,32.8c-2,0-3.6,1.6-3.6,3.6l0,66.2c0,2,1.6,3.6,3.6,3.6l35.8,0c2,0,3.6-1.6,3.6-3.6l0-66.2
				c0-2-1.6-3.6-3.6-3.6L55.4,32.8z"/>
			<path class="st5" d="M89.4,96.9l-32.5,0l0-55l32.5,0L89.4,96.9z"/>
			<path class="st6" d="M89.4,96.9l-32.5,0l0-23.4l32.5,0L89.4,96.9z"/>
			<path class="st7" d="M57,73.5v23.3 M78.6,73.5v23.3 M67.8,73.5v23.3 M89.5,73.5v23.3 M57,73.5h32.5 M57,79.3h32.5 M57,85.1h32.5
				 M57,90.9h32.5 M57,96.7h32.5"/>
			<path class="st2" d="M89.4,73.5l-32.5,0l0-31.6l32.5,0L89.4,73.5z"/>
			<path class="st5" d="M89.5,46.1l-32.5,0l0-4.2l32.5,0L89.5,46.1L89.5,46.1z"/>
			<path class="st8" d="M89.5,73.5l-32.5,0l0-3.2l32.5,0L89.5,73.5z"/>
			<path class="st9" d="M75,101.1c0,1-0.8,1.8-1.8,1.8c-1,0-1.8-0.8-1.8-1.8c0-1,0.8-1.8,1.8-1.8C74.2,99.2,75,100.1,75,101.1z"/>
			<path class="st10" d="M77.6,37c0,0.3-0.3,0.6-0.6,0.6h-7.6c-0.3,0-0.6-0.3-0.6-0.6c0-0.3,0.3-0.6,0.6-0.6H77
				C77.4,36.4,77.6,36.7,77.6,37z"/>
			<path class="st2" d="M79.4,121.7c0,0,1.8-16.6,13.2-35.7c3.9-6.6-0.5-15.7,2.8-24.1c2.8-7.5,8.1-5.7,8.4-3.2
				c0.3,2.5-1.2,12.4-1.1,16.3c0.2,3.8,1.1,15.5,1.5,19.5c0.5,4-3.3,30.6-21.3,31.6L79.4,121.7L79.4,121.7z"/>
			<path class="st3" d="M79.1,143.2c0,0,2.2-14.3-1.6-24c0,0,15.6,14,8.9,24.4L79.1,143.2L79.1,143.2z"/>
			<path class="st3" d="M77.5,153c0,0,7-12.7,6.7-23.1c0,0,6.6,20.3-3.3,27.7L77.5,153z"/>
			<path class="st2" d="M50.7,93.3c0,0-2.2-2.5-2.5-6c-0.3-3.5,2-6.1,4.1-7.4c2.2-1.2,4.5,1.4,2.3,4.8
				C52.5,88.1,51.1,89.3,50.7,93.3"/>
			<path class="st2" d="M50.2,82.5c-0.3-0.5-2.5-2.8-2.5-6c0-3.2,2.3-7.4,4.3-8.9c2-1.5,4.5,1.7,3.5,5.2c-0.9,3.5-2.6,7.2-3.1,8.4
				C52.1,82.5,50.2,82.5,50.2,82.5"/>
			<path class="st11" d="M66.2,131.4l31.3-1.8l2.8,40.1l-35,3.2L66.2,131.4L66.2,131.4z"/>
			<path class="st2" d="M73.3,166c0,0-0.3-3.7,7.2-10.7c3.9-3.7,4-14.2,2.9-22.2c-1.1-8-11-11.5-11-11.5s-3.7-6.2-6.2-7
				c-2.4-0.8-3.5,2.7-6.2,4c-2.7,1.3-6.8,0.2-7.2,3.5c-0.8,6.5-4.1,1.9-7,7.8c-3.7,7.8,4,30,4.5,36.1H73.3L73.3,166z"/>
			<path class="st2" d="M67.5,132.3c0,0,1.3-17.1,1.1-29.2c-0.3-12-1.9-21.1,2.9-22.7c4.8-1.6,4.5,3.2,4.8,5.6
				c0.3,2.4,2.9,40.4,1.3,55.4"/>
			<path class="st3" d="M77.9,124.8l1.1,17.7C79,142.5,83.2,141.5,77.9,124.8"/>
			<path class="st12" d="M77.2,11.8c0-1.4-1.1-2.5-2.5-2.5h-3.1c-1.4,0-2.5,1.1-2.5,2.5v5c0,1.4,1.1,2.5,2.5,2.5h3.1
				c1.4,0,2.5-1.1,2.5-2.5V11.8z"/>
			<path class="st2" d="M80.2,27.2c0,1.4-1.1,2.2-2.5,2.2h-9.1c-1.4,0-2.5-0.8-2.5-2.2V16.3c0-1.4,1.1-2.1,2.5-2.1h9.1
				c1.4,0,2.5,0.8,2.5,2.1V27.2z"/>
			<path class="st1" d="M75.4,19.6c0,1.2-1,2.2-2.2,2.2c-1.2,0-2.2-1-2.2-2.2c0-1.2,1-2.2,2.2-2.2C74.4,17.4,75.4,18.4,75.4,19.6"/>
			<path class="st1" d="M74.3,26.4H72l0.6-7.1h1.1L74.3,26.4z"/>
			<rect x="59.1" y="53.2" class="st5" width="4.6" height="4.6"/>
			<rect x="65" y="53.2" class="st5" width="4.6" height="4.6"/>
			<rect x="70.9" y="53.2" class="st5" width="4.6" height="4.6"/>
			<rect x="76.8" y="53.2" class="st5" width="4.6" height="4.6"/>
			<rect x="82.7" y="53.2" class="st5" width="4.6" height="4.6"/>
		</g>
	</g>
</g>
</svg>
