<?xml version="1.0" encoding="UTF-8"?>
<svg id="Layer_1" data-name="Layer 1" xmlns="http://www.w3.org/2000/svg" version="1.1" viewBox="0 0 1080 1080">
  <defs>
    <style>
      .cls-1 {
        fill: #ff6200;
      }

      .cls-1, .cls-2, .cls-3, .cls-4, .cls-5, .cls-6, .cls-7 {
        stroke-width: 0px;
      }

      .cls-2 {
        fill: #4e4fa0;
      }

      .cls-3 {
        fill: #232143;
      }

      .cls-4 {
        fill: #00adee;
      }

      .cls-5 {
        fill: #a86655;
      }

      .cls-6 {
        fill: #e6e7e8;
      }

      .cls-7 {
        fill: #fff;
      }
    </style>
  </defs>
  <g>
    <path class="cls-5" d="M683,431.7c19.8-5.7,40.5,5.9,47.5,25.2l59.8,165.1c6.2,17.2,36.1,97.5,36.1,97.5l-73.5,25.9-95.4-263.3c-7.6-20.9,4-44,25.6-50.3"/>
    <path class="cls-5" d="M476.7,777l-142.9-65.5c-19.4-8.9-42.3-.4-51.3,19-8.9,19.4-.3,42.3,19,51.2l142.9,65.5c19.4,8.9,42.3.4,51.3-19,8.9-19.4.3-42.3-19-51.2"/>
    <path class="cls-5" d="M731.8,903.8l-257.8-126.3c-19.2-9.4-42.3-1.5-51.7,17.7-9.4,19.2-1.5,42.3,17.7,51.7l257.8,126.3,34-69.4Z"/>
    <polygon class="cls-5" points="879.4 871.8 805.8 666.3 647.5 618.3 519.6 885.7 705.1 986.1 879.4 871.8"/>
    <path class="cls-5" d="M707.1,724.2l-301.9-138.3c-19.4-8.9-42.3-.4-51.3,19-8.9,19.4-.3,42.3,19,51.2l302,138.3,32.2-70.3Z"/>
    <path class="cls-5" d="M532.4,561.6l-290-132.9c-19.4-8.9-42.3-.4-51.2,19-8.9,19.4-.4,42.3,19,51.2l290,132.9,32.2-70.3Z"/>
    <polygon class="cls-5" points="1215.8 1650.5 865.8 830.8 624.2 937.2 845.5 1902.6 1215.8 1650.5"/>
    <path class="cls-3" d="M515.7,852.5l204.5-71.9c25.9-9.1,38.4-41,27.8-71.1l-179.3-509.9c-10.6-30.1-40.2-47.2-66.2-38.1l-204.5,71.9c-25.9,9.1-38.4,41-27.8,71.1l179.3,509.9c10.6,30.1,40.2,47.2,66.2,38.1"/>
    <path class="cls-7" d="M517.6,819.7l180.6-63.5c22.9-8.1,34.1-35.7,24.9-61.8l-155.2-441.6c-9.2-26.1-35.2-40.7-58.1-32.7l-180.6,63.5c-22.9,8.1-34.1,35.8-24.9,61.9l155.2,441.6c9.2,26.1,35.2,40.7,58.1,32.7"/>
    <rect class="cls-6" x="419.4" y="570.7" width="240.8" height="40.7" rx="11.9" ry="11.9" transform="translate(-161.3 204.9) rotate(-18.8)"/>
    <g>
      <rect class="cls-6" x="629" y="595.9" width="40.7" height="40.7" rx="5.9" ry="5.9" transform="translate(-166.2 247.1) rotate(-19.1)"/>
      <rect class="cls-6" x="582.5" y="612" width="40.7" height="40.7" rx="5.9" ry="5.9" transform="translate(-174.1 232.7) rotate(-19.1)"/>
      <rect class="cls-6" x="535.7" y="628.2" width="40.7" height="40.7" rx="5.9" ry="5.9" transform="translate(-182 218.3) rotate(-19.1)"/>
      <rect class="cls-6" x="489.3" y="644.4" width="40.7" height="40.7" rx="5.9" ry="5.9" transform="translate(-189.8 204) rotate(-19.1)"/>
      <rect class="cls-6" x="441" y="661.1" width="40.7" height="40.7" rx="5.9" ry="5.9" transform="translate(-198 189) rotate(-19.1)"/>
      <rect class="cls-6" x="645.9" y="644.7" width="40.7" height="40.7" rx="5.9" ry="5.9" transform="translate(-181.3 255.4) rotate(-19.1)"/>
      <rect class="cls-6" x="599.5" y="660.8" width="40.7" height="40.7" rx="5.9" ry="5.9" transform="translate(-189.1 241) rotate(-19.1)"/>
      <rect class="cls-6" x="552.7" y="677.1" width="40.7" height="40.7" rx="5.9" ry="5.9" transform="translate(-197.1 226.6) rotate(-19.1)"/>
      <rect class="cls-6" x="506.2" y="693.2" width="40.7" height="40.7" rx="5.9" ry="5.9" transform="translate(-204.9 212.2) rotate(-19.1)"/>
      <rect class="cls-6" x="457.9" y="710" width="40.7" height="40.7" rx="5.9" ry="5.9" transform="translate(-213.1 197.3) rotate(-19.1)"/>
      <rect class="cls-6" x="662.9" y="693.6" width="40.7" height="40.7" rx="5.9" ry="5.9" transform="translate(-196.4 263.6) rotate(-19.1)"/>
      <rect class="cls-6" x="616.5" y="709.7" width="40.7" height="40.7" rx="5.9" ry="5.9" transform="translate(-204.2 249.3) rotate(-19.1)"/>
      <rect class="cls-6" x="569.6" y="725.9" width="40.7" height="40.7" rx="5.9" ry="5.9" transform="translate(-212.2 234.8) rotate(-19.1)"/>
      <rect class="cls-6" x="523.2" y="742.1" width="40.7" height="40.7" rx="5.9" ry="5.9" transform="translate(-220 220.5) rotate(-19.1)"/>
      <rect class="cls-6" x="474.9" y="758.8" width="40.7" height="40.7" rx="5.9" ry="5.9" transform="translate(-228.2 205.6) rotate(-19.1)"/>
    </g>
    <path class="cls-5" d="M511.2,634.5l-142.9-65.5c-19.4-8.9-42.3-.4-51.3,19-8.9,19.4-.3,42.3,19,51.2l143,65.5c19.4,8.9,42.3.4,51.2-19,8.9-19.4.4-42.3-19-51.2"/>
    <path class="cls-5" d="M555.4,736.2l-142.9-65.5c-19.4-8.9-42.3-.4-51.2,19-8.9,19.4-.4,42.3,19,51.2l142.9,65.5c19.4,8.9,42.3.4,51.2-19,8.9-19.4.4-42.3-19-51.2"/>
    <path class="cls-2" d="M349.4,255l131.6-46.3c4.5-1.6,6.9-6.5,5.3-11-1.6-4.5-6.5-6.9-11-5.3l-131.6,46.3c-4.5,1.6-6.9,6.5-5.3,11,1.6,4.5,6.5,6.9,11,5.3"/>
  </g>
  <rect class="cls-1" x="408.5" y="290.1" width="160.7" height="40.7" rx="11.9" ry="11.9" transform="translate(-73.9 173.7) rotate(-18.8)"/>
  <rect class="cls-1" x="503.5" y="420.8" width="109.2" height="40.7" rx="11.9" ry="11.9" transform="translate(-112.2 202.9) rotate(-18.8)"/>
  <rect class="cls-4" x="351.1" y="373.2" width="160.7" height="68.4" rx="11.9" ry="11.9" transform="translate(-108.1 160.4) rotate(-18.8)"/>
  <polygon class="cls-1" points="543.7 270.3 563.8 263 564.6 284.3 543.7 270.3"/>
  <polygon class="cls-4" points="350.9 420 338.4 402.7 358.6 396 350.9 420"/>
  <polygon class="cls-1" points="589 409.2 609 401.9 609.9 423.2 589 409.2"/>
</svg>