<?xml version="1.0" encoding="UTF-8"?>
<svg id="Layer_1" data-name="Layer 1" xmlns="http://www.w3.org/2000/svg" version="1.1" viewBox="0 0 1080 1080">
  <defs>
    <style>
      .cls-1 {
        fill: #ff6200;
      }

      .cls-1, .cls-2, .cls-3, .cls-4, .cls-5 {
        stroke-width: 0px;
      }

      .cls-2 {
        fill: #e3934e;
      }

      .cls-3 {
        fill: #232143;
      }

      .cls-3, .cls-4 {
        fill-rule: evenodd;
      }

      .cls-6 {
        fill: none;
        stroke: #ff6200;
        stroke-miterlimit: 10;
        stroke-width: 17px;
      }

      .cls-4 {
        fill: #fff;
      }

      .cls-5 {
        fill: #e6e7e8;
      }
    </style>
  </defs>
  <path class="cls-2" d="M279.2,693.6l85.7-229.8c13-34.2,44.1-57.7,80.1-60.9l42.2-3.7-122.3,327.4-85.7-32.9h0Z"/>
  <path class="cls-2" d="M328.3,561.2l168.9-54.6,218.2,252.7-60.7,62.6c-40.4,44.6-91.1,78.8-147.5,99.7h0s-360.8,0-360.8,0l76.4-88.2,105.6-272.1Z"/>
  <path class="cls-3" d="M591.5,862.5l-246.5-91.9c-18-6.8-27.3-26.7-20.5-44.7l215.5-576.5c6.8-18,26.7-27.3,44.7-20.5l246.5,91.9c18,6.8,27.3,26.7,20.5,44.7l-215.5,576.4c-6.2,18.6-26.1,27.3-44.7,20.5h0Z"/>
  <path class="cls-4" d="M596.5,849.5l-245.9-91.9c-12.4-4.3-18.6-18-13.7-30.4l213.6-570.9c4.3-12.4,18-18.6,30.4-13.7l245.3,91.3c12.4,4.3,18.6,18,13.7,30.4l-213.6,570.8c-3.7,12.4-17.4,18.6-29.8,14.3h0Z"/>
  <g>
    <circle class="cls-6" cx="585.9" cy="490.3" r="109.3"/>
    <g>
      <rect class="cls-1" x="552.3" y="465" width="22.3" height="62.2" transform="translate(-160.6 297.7) rotate(-26)"/>
      <rect class="cls-1" x="557.1" y="485.5" width="102.5" height="22.3" transform="translate(-156.3 317.4) rotate(-26)"/>
    </g>
  </g>
  <rect class="cls-5" x="565.2" y="220.7" width="115.7" height="13.9" rx="6.9" ry="6.9" transform="translate(120.1 -204.9) rotate(20.6)"/>
  <rect class="cls-5" x="382" y="743.7" width="53" height="13.9" rx="6.9" ry="6.9" transform="translate(290.7 -95.8) rotate(20.6)"/>
  <rect class="cls-5" x="529.7" y="799.4" width="53" height="13.9" rx="6.9" ry="6.9" transform="translate(319.7 -144.3) rotate(20.6)"/>
  <rect class="cls-5" x="684.9" y="265.8" width="115.7" height="13.9" rx="6.9" ry="6.9" transform="translate(143.7 -244.2) rotate(20.6)"/>
  <path class="cls-3" d="M633.8,150.7l-3.7,10.6c-5.6,14.9,1.9,31,16.8,36.6l93.8,34.8c14.9,5.6,31-1.9,36.6-16.8l5-9.3-148.4-55.9ZM741,210.2l-80.3-30,2.9-7.6,80.3,30-2.9,7.6Z"/>
  <path class="cls-2" d="M669.4,685l24.2-11.2c21.7-9.9,47.8-.6,58.4,21.1h0c9.9,21.7.6,47.8-21.1,58.4l-24.2,11.2c-21.7,9.9-47.8.6-58.4-21.1h0c-10.6-22.4-.6-48.4,21.1-58.4Z"/>
  <path class="cls-2" d="M641.3,565c-9.9-22.4.6-48.4,23-57.7l104.3-44.1c22.4-9.9,47.8.6,57.7,23h0c9.9,22.4-.6,47.8-23,57.7l-104.9,44.7c-21.7,8.7-47.8-1.2-57.1-23.6h0Z"/>
  <path class="cls-2" d="M484.5,385.1c23-8.1,47.8,3.7,55.9,26.7h0c8.1,23-3.7,47.8-26.7,55.9l-122.7,67.6,29.3-126.8,64.3-23.4Z"/>
  <path class="cls-2" d="M686.6,454.4c-9.9-22.4.6-48.4,23-57.7l89.4-38.5c22.4-9.9,47.8.6,57.7,23h0c9.9,22.4-.6,47.8-23,57.7l-89.4,38.5c-22.4,9.3-47.8-.6-57.7-23h0Z"/>
  <path class="cls-2" d="M637.6,612.2l88.8-38.5c22.4-9.9,47.8.6,57.7,23h0c9.9,22.4-.6,47.8-23,57.7l-88.8,38.5c-22.4,9.9-47.8-.6-57.7-23h0c-9.3-22.4.6-48.4,23-57.7Z"/>
  <polygon class="cls-2" points="815.5 402.7 708.2 727.8 652.1 713.4 752.8 398.5 815.5 402.7"/>
</svg>